<?xml version="1.0" encoding="UTF-8" standalone="no"?>
<!-- Created with Inkscape (http://www.inkscape.org/) -->

<svg
   width="260"
   height="260"
   id="svg2"
   sodipodi:version="0.32"
   inkscape:version="1.1.2 (b8e25be833, 2022-02-05)"
   version="1.0"
   sodipodi:docname="SuitSpades.svg"
   inkscape:output_extension="org.inkscape.output.svg.inkscape"
   xmlns:inkscape="http://www.inkscape.org/namespaces/inkscape"
   xmlns:sodipodi="http://sodipodi.sourceforge.net/DTD/sodipodi-0.dtd"
   xmlns="http://www.w3.org/2000/svg"
   xmlns:svg="http://www.w3.org/2000/svg"
   xmlns:rdf="http://www.w3.org/1999/02/22-rdf-syntax-ns#"
   xmlns:cc="http://creativecommons.org/ns#"
   xmlns:dc="http://purl.org/dc/elements/1.1/">
  <defs
     id="defs4" />
  <sodipodi:namedview
     id="base"
     pagecolor="#ffffff"
     bordercolor="#666666"
     borderopacity="1.0"
     inkscape:pageopacity="0.0"
     inkscape:pageshadow="2"
     inkscape:zoom="1.3057693"
     inkscape:cx="23.740795"
     inkscape:cy="131.3402"
     inkscape:document-units="px"
     inkscape:current-layer="layer1"
     inkscape:showpageshadow="false"
     width="240px"
     height="260px"
     inkscape:window-width="1280"
     inkscape:window-height="885"
     inkscape:window-x="132"
     inkscape:window-y="0"
     showgrid="false"
     inkscape:pagecheckerboard="0" />
  <metadata
     id="metadata7">
    <rdf:RDF>
      <cc:Work
         rdf:about="">
        <dc:format>image/svg+xml</dc:format>
        <dc:type
           rdf:resource="http://purl.org/dc/dcmitype/StillImage" />
      </cc:Work>
    </rdf:RDF>
  </metadata>
  <g
     inkscape:label="Livello 1"
     inkscape:groupmode="layer"
     id="layer1"
     transform="translate(-300.375,-343.5)">
    <path
       style="fill:#000000;fill-opacity:1;fill-rule:nonzero;stroke:none;stroke-width:1;stroke-linecap:round;stroke-linejoin:round;stroke-miterlimit:4;stroke-dasharray:3, 3;stroke-dashoffset:0;stroke-opacity:1"
       d="m 430.37498,349.55102 c -59.97446,40.5305 -99.99993,118.02532 -99.99998,165.16521 0,24.50034 19.92385,46.09612 46.54651,46.09612 21.55902,0 39.94,-19.57492 39.93995,-46.54656 0,-4.06525 2.13434,-5.85585 3.9039,-5.85585 2.32068,0 4.65466,3.30291 4.65466,9.6096 0,15.63129 -7.84817,55.29751 -18.46847,79.42944 6.12973,-1.81232 14.30448,-3.60358 23.42343,-3.60358 9.11904,0 17.44384,1.79126 23.57358,3.60358 -10.62031,-24.13193 -18.46848,-63.79815 -18.46848,-79.42944 0,-6.30669 2.33398,-9.6096 4.65466,-9.6096 1.76956,0 3.75375,1.7906 3.75375,5.85585 5e-5,26.97164 18.53108,46.54656 40.0901,46.54656 26.62266,0 46.39641,-21.59578 46.39641,-46.09612 5e-5,-47.13989 -40.02552,-124.63471 -100.00002,-165.16521 z"
       id="path2401" />
  </g>
</svg>
